<svg width="2268" height="2268" viewBox="0 0 2268 2268" fill="none" xmlns="http://www.w3.org/2000/svg">
<g clip-path="url(#clip0_2220_1171)">
<path d="M1137.4 0H1133.8C833.098 0 544.711 119.454 332.083 332.083C119.454 544.711 0 833.098 0 1133.8V1137.4C0.949321 1436.86 120.329 1723.78 332.077 1935.52C543.825 2147.27 830.745 2266.65 1130.2 2267.6H1133.8C1433.88 2267.6 1721.72 2148.64 1934.25 1936.79C2146.77 1724.94 2266.65 1437.48 2267.6 1137.4V1133.8C2267.6 833.72 2148.64 545.878 1936.79 333.352C1724.94 120.826 1437.48 0.952802 1137.4 0ZM830.6 375C903.933 309.267 1003.93 276.333 1130.6 276.2C1257.27 276.067 1356 309 1426.8 375C1462.68 406.648 1491.14 445.817 1510.15 489.72C1529.17 533.623 1538.26 581.18 1536.8 629C1537.72 676.168 1528.06 722.941 1508.54 765.89C1489.02 808.839 1460.14 846.874 1424 877.201C1350.67 942.934 1251.93 975.866 1127.8 976C1001.53 976 902.733 944.001 831.4 880.001C797.498 847.265 770.535 808.036 752.119 764.655C733.704 721.273 724.213 674.629 724.213 627.501C724.213 580.373 733.704 533.727 752.119 490.345C770.535 446.964 797.498 407.736 831.4 375H830.6ZM568 1238.2C494.783 1328.11 455.808 1441.07 458 1557C457.843 1593.15 460.518 1629.27 466 1665C478 1742.2 410.6 1765 377.8 1723.2C228.632 1531.88 157.553 1291.12 178.894 1049.46C200.236 807.797 312.41 583.217 492.8 421C537.6 381 588 417.801 568.2 489.601C556.551 532.217 550.764 576.22 551 620.399C549.186 712.246 576.875 802.255 630 877.201C682.206 949.633 754.429 1005.24 837.8 1037.2C839 1037.6 840.046 1038.36 840.787 1039.38C841.528 1040.4 841.927 1041.64 841.927 1042.9C841.927 1044.16 841.528 1045.4 840.787 1046.42C840.046 1047.44 839 1048.21 837.8 1048.6C730.689 1082.91 636.577 1149.05 568 1238.2ZM1493.8 1864.6C1405.4 1943.67 1286 1983.13 1135.6 1983C979.333 1983 857.067 1944.47 768.8 1867.4C680.533 1790.33 637.267 1686.87 639 1557C639 1427.4 682.267 1323.07 768.8 1244C855.333 1164.93 974.8 1125.4 1127.2 1125.4C1281.47 1125.4 1402.73 1164.93 1491 1244C1581.4 1322.93 1626.53 1427.27 1626.4 1557C1628.3 1614.87 1617.4 1672.45 1594.47 1725.62C1571.55 1778.79 1537.18 1826.25 1493.8 1864.6ZM1890 1723.2C1857.2 1765.2 1790 1743.2 1801.8 1665C1807.28 1629.27 1809.96 1593.15 1809.8 1557C1811.99 1441.07 1773.02 1328.11 1699.8 1238.2C1631.44 1148.82 1537.47 1082.4 1430.4 1047.8C1429.2 1047.4 1428.15 1046.64 1427.41 1045.62C1426.67 1044.6 1426.27 1043.36 1426.27 1042.1C1426.27 1040.84 1426.67 1039.61 1427.41 1038.58C1428.15 1037.56 1429.2 1036.79 1430.4 1036.4C1513.77 1004.44 1585.99 948.833 1638.2 876.4C1691.32 801.454 1719.01 711.448 1717.2 619.601C1717.44 575.422 1711.65 531.416 1700 488.8C1680 417 1730.6 380 1775.4 420.2C1955.79 582.417 2067.96 806.997 2089.31 1048.66C2110.65 1290.32 2039.57 1531.08 1890.4 1722.4L1890 1723.2Z" fill="black"/>
</g>
<defs>
<clipPath id="clip0_2220_1171">
<rect width="2267.8" height="2267.8" fill="white"/>
</clipPath>
</defs>
</svg>
